<?xml version="1.0" standalone="no"?>
<!DOCTYPE svg PUBLIC "-//W3C//DTD SVG 20010904//EN"
 "http://www.w3.org/TR/2001/REC-SVG-20010904/DTD/svg10.dtd">
<svg version="1.0" xmlns="http://www.w3.org/2000/svg"
 width="1920.000000pt" height="1080.000000pt" viewBox="0 0 1920.000000 1080.000000"
 preserveAspectRatio="xMidYMid meet">

<g transform="translate(0.000000,1080.000000) scale(0.100000,-0.100000)"
fill="#000000" stroke="none">
<path d="M13245 7959 c-578 -61 -901 -443 -945 -1119 -12 -188 -12 -2638 0
-2836 37 -600 298 -964 778 -1084 127 -32 311 -45 459 -32 471 41 777 272 917
692 77 230 86 361 86 1298 l0 722 -520 0 -520 0 0 -250 0 -250 255 0 255 0 0
-557 c0 -616 -5 -678 -60 -821 -87 -225 -261 -335 -525 -335 -179 0 -285 38
-395 139 -48 45 -70 76 -105 148 -86 179 -80 55 -80 1756 l0 1505 23 85 c64
241 195 381 402 431 77 18 251 16 329 -5 142 -37 268 -140 330 -269 65 -137
74 -197 78 -559 l5 -328 264 0 264 0 0 198 c0 589 -70 879 -272 1128 -209 259
-594 388 -1023 343z"/>
<path d="M1205 7908 c-2 -7 -180 -1118 -395 -2468 -216 -1350 -394 -2467 -397
-2482 l-5 -28 359 0 359 0 58 393 c32 215 63 418 68 450 l10 57 482 0 482 0
63 -422 c35 -233 65 -435 68 -450 l6 -28 393 0 394 0 -5 23 c-3 12 -180 1122
-395 2467 -215 1345 -393 2457 -396 2473 l-6 27 -569 0 c-447 0 -570 -3 -574
-12z m723 -2131 c101 -677 186 -1240 189 -1249 4 -17 -19 -18 -377 -18 l-382
0 5 23 c3 12 88 574 188 1250 101 675 186 1227 189 1227 3 0 88 -555 188
-1233z"/>
<path d="M3370 5426 l0 -2496 390 0 390 0 0 1015 0 1015 183 0 c264 0 347 -22
449 -118 54 -50 98 -133 124 -233 14 -55 18 -158 24 -729 9 -721 10 -740 66
-932 5 -17 33 -18 404 -18 l399 0 -14 33 c-18 44 -42 139 -56 223 -7 43 -14
323 -19 739 -6 559 -11 684 -24 755 -63 324 -186 516 -410 644 l-76 43 66 39
c124 72 252 209 317 339 39 80 76 201 99 325 19 103 21 153 22 490 0 263 -3
403 -13 470 -73 523 -329 784 -852 871 -52 8 -282 13 -771 16 l-698 4 0 -2495z
m1262 1773 c151 -32 236 -125 274 -297 20 -89 30 -591 16 -762 -22 -261 -98
-383 -272 -442 -57 -19 -93 -22 -282 -26 l-218 -4 0 771 0 771 215 0 c120 0
237 -5 267 -11z"/>
<path d="M5860 7565 l0 -355 410 0 410 0 0 -2140 0 -2140 390 0 390 0 0 2140
0 2140 410 0 410 0 0 355 0 355 -1210 0 -1210 0 0 -355z"/>
<path d="M8490 5425 l0 -2495 275 0 275 0 0 2495 0 2495 -275 0 -275 0 0
-2495z"/>
<path d="M10275 7908 c-2 -7 -216 -1122 -475 -2478 -259 -1356 -473 -2473
-476 -2482 -5 -17 11 -18 250 -18 234 0 255 1 260 18 7 22 186 960 186 972 0
6 239 10 635 10 349 0 635 -1 635 -3 0 -5 167 -876 181 -944 l10 -53 275 0
c151 0 274 4 274 9 0 5 -214 1126 -475 2491 -261 1365 -475 2484 -475 2486 0
2 -180 4 -400 4 -312 0 -402 -3 -405 -12z m655 -2063 c148 -764 272 -1400 275
-1412 l5 -23 -555 0 c-429 0 -555 3 -555 12 0 11 519 2749 537 2833 l6 30 8
-25 c4 -14 130 -650 279 -1415z"/>
<path d="M15725 7908 c-2 -7 -216 -1122 -475 -2478 -259 -1356 -473 -2473
-476 -2482 -5 -17 11 -18 250 -18 234 0 255 1 260 18 7 22 186 960 186 972 0
6 239 10 635 10 349 0 635 -1 635 -3 0 -5 167 -876 181 -944 l10 -53 275 0
c151 0 274 4 274 9 0 5 -214 1126 -475 2491 -261 1365 -475 2484 -475 2486 0
2 -180 4 -400 4 -312 0 -402 -3 -405 -12z m655 -2063 c148 -764 272 -1400 275
-1412 l5 -23 -555 0 c-429 0 -555 3 -555 12 0 11 519 2749 537 2833 l6 30 8
-25 c4 -14 130 -650 279 -1415z"/>
<path d="M17726 3544 l-86 -56 0 -49 c0 -27 3 -49 8 -49 4 0 39 21 77 46 l70
45 3 -275 2 -276 60 0 60 0 0 335 0 335 -54 0 c-48 0 -62 -6 -140 -56z"/>
<path d="M18100 3588 c0 -7 -7 -71 -15 -143 -23 -200 -24 -191 33 -199 37 -5
56 -2 87 14 90 46 188 0 196 -91 5 -58 -2 -82 -35 -115 -30 -30 -40 -34 -86
-34 -44 0 -56 4 -81 29 -16 16 -29 37 -29 45 0 13 -12 16 -60 16 l-60 0 6 -27
c18 -75 66 -124 146 -148 65 -19 91 -19 159 1 92 27 159 117 159 214 0 121
-97 220 -216 220 -17 0 -52 -11 -78 -24 l-47 -24 6 67 c11 123 -5 111 155 111
l140 0 0 50 0 50 -190 0 c-145 0 -190 -3 -190 -12z"/>
</g>
</svg>
