<?xml version="1.0" standalone="no"?>
<!DOCTYPE svg PUBLIC "-//W3C//DTD SVG 20010904//EN"
 "http://www.w3.org/TR/2001/REC-SVG-20010904/DTD/svg10.dtd">
<svg version="1.0" xmlns="http://www.w3.org/2000/svg"
 width="2048.000000pt" height="2048.000000pt" viewBox="0 0 2048.000000 2048.000000"
 preserveAspectRatio="xMidYMid meet">

<g transform="translate(0.000000,2048.000000) scale(0.100000,-0.100000)"
fill="#000000" stroke="none">
<path d="M6835 15314 c-90 -20 -219 -80 -292 -137 -191 -147 -293 -353 -293
-592 0 -133 20 -221 74 -330 124 -250 353 -405 623 -422 369 -23 694 215 784
577 20 79 17 278 -5 360 -67 250 -263 453 -511 530 -93 29 -280 36 -380 14z"/>
<path d="M12693 13739 c-275 -33 -512 -217 -611 -476 -17 -43 -206 -568 -421
-1167 -216 -598 -397 -1102 -404 -1118 -12 -29 -33 27 -431 1133 -230 640
-431 1189 -447 1220 -91 181 -291 337 -495 385 -99 23 -259 21 -357 -5 -148
-39 -305 -138 -392 -249 -153 -193 -208 -434 -150 -657 8 -31 346 -977 751
-2103 405 -1126 753 -2095 774 -2154 49 -136 88 -210 155 -290 215 -261 588
-341 900 -194 153 72 277 189 350 327 41 78 1566 4312 1597 4433 17 65 19 101
16 200 -9 212 -69 347 -224 502 -78 79 -104 98 -185 137 -145 70 -280 94 -426
76z"/>
<path d="M7651 13670 c-284 -39 -524 -240 -617 -515 -32 -97 -43 -255 -25
-360 15 -87 1558 -4382 1609 -4480 48 -90 181 -227 277 -283 39 -22 106 -53
150 -69 74 -25 92 -27 230 -28 143 0 154 2 238 32 125 44 190 86 292 188 136
135 203 281 221 477 13 150 28 106 -791 2383 -422 1172 -777 2156 -790 2188
-127 315 -461 512 -794 467z"/>
</g>
</svg>
